<?xml version="1.0" encoding="UTF-8"?>
<svg version="1.1" xmlns="http://www.w3.org/2000/svg" width="200" height="200">
<path d="M0 0 C66 0 132 0 200 0 C200 66 200 132 200 200 C134 200 68 200 0 200 C0 134 0 68 0 0 Z " fill="#FD705A" transform="translate(0,0)"/>
<path d="M0 0 C11.88 0 23.76 0 36 0 C33.31616896 14.6460494 30.59957735 29.27567567 27.61254883 43.86303711 C23.48762002 61.48755895 23.48762002 61.48755895 27.56640625 78.41015625 C31.37131554 82.62976954 35.87276356 83.76418626 41.3828125 84.375 C50.8618524 84.70256941 57.60070914 82.91943269 65 77 C65.66 77 66.32 77 67 77 C67.42345703 76.10667969 67.42345703 76.10667969 67.85546875 75.1953125 C69 73 69 73 71.3125 69.875 C73.8038645 65.88337119 75.13696348 61.74160632 76.3671875 57.234375 C76.58054245 56.45816803 76.7938974 55.68196106 77.01371765 54.88223267 C79.86201697 44.17119302 81.79565986 33.26610365 83.8125 22.375 C84.2225973 20.1925748 84.63340047 18.01028212 85.04492188 15.828125 C86.03936679 10.55376527 87.01937165 5.27701966 88 0 C99.88 0 111.76 0 124 0 C121.24874239 16.40172803 118.06592057 32.66396633 114.64013672 48.93701172 C113.90088733 52.47424392 113.19446115 56.01622797 112.5 59.5625 C111.57431218 64.26299864 110.58130443 68.94455646 109.55859375 73.625 C109.29304687 74.84501709 109.0275 76.06503418 108.75390625 77.32202148 C108.22576561 79.7417711 107.69348952 82.1606234 107.15625 84.57836914 C105.60051869 91.71165919 104.38832436 98.81057363 103.47460938 106.05517578 C102.86488147 109.83837435 101.68346256 112.56573638 100 116 C99.59251895 117.32981991 99.19785713 118.66360123 98.8125 120 C93.3303263 136.55955562 83.32440646 149.50976567 68 158 C67.36964844 158.38671875 66.73929687 158.7734375 66.08984375 159.171875 C47.99300001 169.51292857 19.58759527 168.86003931 -0.21533203 163.84570312 C-22.86589719 157.35036122 -22.86589719 157.35036122 -27.09375 150.1328125 C-26.94546885 146.75941644 -25.31422315 144.68433809 -23.5 141.875 C-23.13777344 141.30821533 -22.77554687 140.74143066 -22.40234375 140.1574707 C-19.08163171 135.00501572 -15.58912729 129.96869809 -12 125 C-11.030625 125.53109375 -10.06125 126.0621875 -9.0625 126.609375 C8.26783443 135.85338499 26.60918402 140.63024741 46 135 C53.7279799 132.25487583 58.36208836 127.33308022 62.1875 120.1875 C64.47243236 115.30214252 67 109.45173695 67 104 C65.94425781 104.68835938 65.94425781 104.68835938 64.8671875 105.390625 C50.6482711 114.22640073 34.3862461 118.1420382 17.73974609 114.50634766 C13.21070036 113.18874972 9.13739009 111.27760267 5 109 C4.11828125 108.51660156 3.2365625 108.03320312 2.328125 107.53515625 C-5.38062338 102.45203861 -10.10236117 92.91152278 -12 84 C-13.92703524 66.61898 -10.18643968 50.20712119 -6.40455627 33.39373779 C-4.76975212 26.08695973 -3.39601887 18.74237073 -2.0625 11.375 C-1.381875 7.62125 -0.70125 3.8675 0 0 Z " fill="#EEEEED" transform="translate(52,17)"/>
<path d="M0 0 C1.31223496 3.93670488 0.24296256 6.12488144 -1 10 C-1.99 10 -2.98 10 -4 10 C-4 9.34 -4 8.68 -4 8 C-5.32 7.67 -6.64 7.34 -8 7 C-7.01 6.67 -6.02 6.34 -5 6 C-5 5.01 -5 4.02 -5 3 C-2.5 1.3125 -2.5 1.3125 0 0 Z " fill="#FA7059" transform="translate(119,120)"/>
<path d="M0 0 C0.33 0 0.66 0 1 0 C2.32528788 6.09632423 1.46619907 10.97767819 0 17 C-2 15 -2 15 -2.265625 12.79296875 C-2.21379833 4.15087187 -2.21379833 4.15087187 0 0 Z " fill="#F1E7E6" transform="translate(83,27)"/>
<path d="M0 0 C0.99 0.66 1.98 1.32 3 2 C2.67 5.96 2.34 9.92 2 14 C0.68 14 -0.64 14 -2 14 C-1.43393721 9.30976546 -0.81462495 4.65499974 0 0 Z " fill="#EEE4E2" transform="translate(139,22)"/>
<path d="M0 0 C-0.1875 1.8125 -0.1875 1.8125 -1 4 C-4.34811134 6.53370588 -5.70124217 7 -10 7 C-10 6.34 -10 5.68 -10 5 C-10.66 4.67 -11.32 4.34 -12 4 C-10.3767313 3.3291288 -8.75132422 2.66342971 -7.125 2 C-6.22007813 1.62875 -5.31515625 1.2575 -4.3828125 0.875 C-2 0 -2 0 0 0 Z " fill="#FB7764" transform="translate(120,175)"/>
<path d="M0 0 C0.66 0 1.32 0 2 0 C1.67 1.65 1.34 3.3 1 5 C1.66 5.33 2.32 5.66 3 6 C2.04882866 7.1725131 1.08882991 8.33787015 0.125 9.5 C-0.40867187 10.1496875 -0.94234375 10.799375 -1.4921875 11.46875 C-1.98976563 11.9740625 -2.48734375 12.479375 -3 13 C-3.66 13 -4.32 13 -5 13 C-4.731875 12.34 -4.46375 11.68 -4.1875 11 C-2.74294953 7.35060933 -1.37128822 3.67754567 0 0 Z " fill="#EDE8E4" transform="translate(117,130)"/>
<path d="M0 0 C2 2 2 2 2.1953125 4.3828125 C2.17210938 5.28773437 2.14890625 6.19265625 2.125 7.125 C2.10695313 8.03507812 2.08890625 8.94515625 2.0703125 9.8828125 C2.04710938 10.58148438 2.02390625 11.28015625 2 12 C1.01 12 0.02 12 -1 12 C-2.45606519 7.47907032 -1.27032841 4.48351204 0 0 Z " fill="#FB7962" transform="translate(83,40)"/>
<path d="M0 0 C-0.75 1.9375 -0.75 1.9375 -2 4 C-4.97637392 5.28976203 -6.96847127 4.94735273 -10 4 C-11.33217297 3.66205906 -12.66536848 3.32809692 -14 3 C-12.23050388 2.49528803 -10.45934777 1.99639315 -8.6875 1.5 C-7.70136719 1.2215625 -6.71523437 0.943125 -5.69921875 0.65625 C-3 0 -3 0 0 0 Z " fill="#F97D69" transform="translate(107,128)"/>
<path d="M0 0 C1.98 0.66 3.96 1.32 6 2 C6 2.66 6 3.32 6 4 C4.02 4.66 2.04 5.32 0 6 C-0.66 5.34 -1.32 4.68 -2 4 C-1.34 2.68 -0.68 1.36 0 0 Z " fill="#F97661" transform="translate(99,146)"/>
<path d="M0 0 C2 1.3125 2 1.3125 4 3 C4 3.99 4 4.98 4 6 C3.01 6 2.02 6 1 6 C0.67 7.65 0.34 9.3 0 11 C-0.33 11 -0.66 11 -1 11 C-1.14285714 3.57142857 -1.14285714 3.57142857 0 0 Z " fill="#F1DFDC" transform="translate(41,74)"/>
<path d="M0 0 C0.66 0 1.32 0 2 0 C2.84098656 4.01804691 3.05404945 7.01803543 2 11 C-0.67927341 6.98108988 -0.15601248 4.75838077 0 0 Z " fill="#EFE6E2" transform="translate(156,98)"/>
<path d="M0 0 C0.99 0 1.98 0 3 0 C2.50351065 4.46840411 2.31012244 5.68987756 -1 9 C-0.67 6.03 -0.34 3.06 0 0 Z " fill="#F2E2E2" transform="translate(43,64)"/>
<path d="M0 0 C0.99 0.33 1.98 0.66 3 1 C2.67 1.99 2.34 2.98 2 4 C-0.31 4 -2.62 4 -5 4 C-2.6875 1.9375 -2.6875 1.9375 0 0 Z " fill="#FA7A67" transform="translate(125,171)"/>
<path d="M0 0 C1.09658936 3.28976808 0.79953138 4.71303767 0 8 C-0.66 7.01 -1.32 6.02 -2 5 C-2.99 4.34 -3.98 3.68 -5 3 C-3.35 2.01 -1.7 1.02 0 0 Z " fill="#FA8473" transform="translate(119,120)"/>
</svg>
