<?xml version="1.0" encoding="UTF-8"?>
<svg version="1.1" xmlns="http://www.w3.org/2000/svg" width="200" height="200">
<path d="M0 0 C66 0 132 0 200 0 C200 66 200 132 200 200 C134 200 68 200 0 200 C0 134 0 68 0 0 Z " fill="#F9802D" transform="translate(0,0)"/>
<path d="M0 0 C9.57 0 19.14 0 29 0 C29.06807096 14.29210811 29.12298551 28.58410662 29.15543652 42.87634087 C29.17101988 49.51447338 29.19212267 56.15245668 29.22631836 62.79052734 C29.25917504 69.20963811 29.27690798 75.62863642 29.28463173 82.04782486 C29.29012838 84.48353976 29.30086032 86.91924926 29.31719017 89.35491562 C29.55121145 125.74342613 29.55121145 125.74342613 22.3125 138.5625 C21.96364746 139.21395996 21.61479492 139.86541992 21.25537109 140.53662109 C13.17486348 155.09749987 1.59602178 161.22026683 -14 166 C-29.94105246 169.84192068 -51.73024829 168.59586111 -67 163 C-68.14855469 162.62617188 -69.29710938 162.25234375 -70.48046875 161.8671875 C-77.84949119 159.3062614 -83.86790519 155.80324357 -90 151 C-89.48725672 145.8007831 -86.84700147 142.00183377 -84.125 137.6875 C-83.45404297 136.57665039 -83.45404297 136.57665039 -82.76953125 135.44335938 C-82.33253906 134.74404297 -81.89554688 134.04472656 -81.4453125 133.32421875 C-80.85000732 132.3664856 -80.85000732 132.3664856 -80.24267578 131.3894043 C-79.83259277 130.93090088 -79.42250977 130.47239746 -79 130 C-75.21145815 130 -73.80331021 131.22201654 -70.625 133.25 C-64.34136345 137.02170894 -58.08743902 139.23051858 -51 141 C-49.86304687 141.29197266 -49.86304687 141.29197266 -48.703125 141.58984375 C-44.69787273 142.19757711 -40.73288465 142.18435184 -36.6875 142.1875 C-35.46256836 142.20586914 -35.46256836 142.20586914 -34.21289062 142.22460938 C-25.17019317 142.24622538 -16.49881883 140.40919114 -9.3046875 134.640625 C-2.53134352 127.76517031 -0.77034475 118.01556765 -0.75 108.6875 C-0.81284668 106.79087701 -0.88838359 104.89437859 -1 103 C-1.99966797 103.79664062 -1.99966797 103.79664062 -3.01953125 104.609375 C-17.77107517 115.91545341 -32.91600685 117.22406306 -51 116 C-63.6198827 113.80178329 -74.4982868 106.23930522 -82 96 C-83.64697015 93.4133475 -84.85149849 90.83711269 -86 88 C-86.40131889 87.03092209 -86.40131889 87.03092209 -86.81074524 86.04226685 C-89.8127788 77.60391117 -89.3783393 69.00147285 -89.29296875 60.1796875 C-89.28736355 58.46762466 -89.28309782 56.75555695 -89.28010559 55.04348755 C-89.26872949 50.56854635 -89.23932586 46.09390391 -89.20599365 41.61907959 C-89.17513553 37.04036499 -89.16156683 32.46160144 -89.14648438 27.8828125 C-89.11444811 18.92172358 -89.06174059 9.96093354 -89 1 C-79.76 1 -70.52 1 -61 1 C-60.9906543 2.96678711 -60.98130859 4.93357422 -60.97167969 6.95996094 C-60.93597303 13.501967 -60.88206269 20.04363135 -60.81609726 26.58539963 C-60.77680425 30.54669456 -60.74452777 34.50777324 -60.72900391 38.46923828 C-60.71371605 42.30153919 -60.67906072 46.13324484 -60.63169098 49.96527863 C-60.61700082 51.41783689 -60.60896619 52.87048019 -60.60811615 54.32311249 C-60.59605649 64.6103734 -59.61443849 74.01748112 -54.1875 83 C-46.68823808 89.85646804 -38.85136874 90.45168448 -29.12890625 90.28125 C-21.02014075 89.90920295 -13.5269078 87.04103876 -8 81 C-2.9105941 73.14983147 -0.92408372 66.79805171 -0.79467773 57.44384766 C-0.77473251 56.16297272 -0.75478729 54.88209778 -0.73423767 53.56240845 C-0.71725854 52.17962766 -0.70037955 50.79684565 -0.68359375 49.4140625 C-0.66299945 47.98773632 -0.64200236 46.56141591 -0.62062073 45.13510132 C-0.56565556 41.3967966 -0.51613457 37.65843915 -0.46777344 33.92004395 C-0.40849551 29.42615545 -0.34240936 24.93236247 -0.27747345 20.43855286 C-0.17978586 13.62576067 -0.09071006 6.81290476 0 0 Z " fill="#FEFCFA" transform="translate(131,16)"/>
<path d="M0 0 C3.465 1.98 3.465 1.98 7 4 C7 4.33 7 4.66 7 5 C5.56342755 5.33730842 4.12569907 5.66969591 2.6875 6 C1.48673828 6.2784375 1.48673828 6.2784375 0.26171875 6.5625 C-2 7 -2 7 -5 7 C-3.35 4.69 -1.7 2.38 0 0 Z " fill="#FAF4E9" transform="translate(53,145)"/>
<path d="M0 0 C0.99 1.32 1.98 2.64 3 4 C2.236875 4.2475 1.47375 4.495 0.6875 4.75 C-2.2364045 6.10995558 -3.30004356 7.31585826 -5 10 C-5.99 9.34 -6.98 8.68 -8 8 C-6.50260417 6.79557292 -5.00520833 5.59114583 -3.5078125 4.38671875 C-1.74707893 2.87729455 -1.74707893 2.87729455 0 0 Z " fill="#FAF4E9" transform="translate(125,94)"/>
<path d="M0 0 C0.33 0.99 0.66 1.98 1 3 C-1.64 3 -4.28 3 -7 3 C-7.33 2.34 -7.66 1.68 -8 1 C-2.25 -1.125 -2.25 -1.125 0 0 Z " fill="#ED9119" transform="translate(116,129)"/>
<path d="M0 0 C1.625 2 1.625 2 3 4 C0.6875 4.625 0.6875 4.625 -2 5 C-2.99 4.34 -3.98 3.68 -5 3 C-2.25 0 -2.25 0 0 0 Z " fill="#EF931F" transform="translate(77,152)"/>
</svg>
