<?xml version="1.0" encoding="UTF-8"?>
<svg version="1.1" xmlns="http://www.w3.org/2000/svg" width="200" height="200">
<path d="M0 0 C66 0 132 0 200 0 C200 66 200 132 200 200 C134 200 68 200 0 200 C0 134 0 68 0 0 Z " fill="#EE8A06" transform="translate(0,0)"/>
<path d="M0 0 C22.7172098 -2.26683856 37.31353488 1.19393838 56.72363281 13.01220703 C60.14673325 15.08902401 63.59049462 17.1067381 67.0859375 19.05859375 C68.12540527 19.64825928 69.16487305 20.2379248 70.23583984 20.84545898 C72.84012561 22.17443454 72.84012561 22.17443454 75.19482422 21.85400391 C78.38187134 20.34625562 80.47247442 17.55276888 82.75 14.9375 C83.25660156 14.36966797 83.76320313 13.80183594 84.28515625 13.21679688 C85.53113136 11.8180135 86.76660973 10.40989267 88 9 C86.824375 7.88625 86.824375 7.88625 85.625 6.75 C83 4 83 4 81 0 C104.43 0 127.86 0 152 0 C145.25 12.375 145.25 12.375 142 18 C140 15 140 15 140 13 C139.0620459 13.21205078 138.1240918 13.42410156 137.15771484 13.64257812 C133.65914253 14.43174598 130.15872933 15.21246733 126.65771484 15.99072266 C125.14613608 16.3279583 123.63505789 16.66744622 122.12451172 17.00927734 C119.94628302 17.5017839 117.76634981 17.98601482 115.5859375 18.46875 C114.91694427 18.62186646 114.24795105 18.77498291 113.5586853 18.93273926 C109.63661959 19.79129845 106.01152667 20.15199289 102 20 C105.84830242 24.60860533 109.74349828 28.80768831 114.375 32.6328125 C116.72996663 34.61415462 118.85351077 36.79702422 121 39 C121.928125 39.928125 122.85625 40.85625 123.8125 41.8125 C124.534375 42.534375 125.25625 43.25625 126 44 C124.73577908 48.13489783 123.19522439 51.6993981 121.015625 55.4296875 C120.41741943 56.45980957 119.81921387 57.48993164 119.20288086 58.55126953 C118.55843018 59.64810059 117.91397949 60.74493164 117.25 61.875 C116.57315308 63.03600655 115.89681025 64.19730711 115.22094727 65.35888672 C113.48694067 68.33631866 111.74666891 71.31003746 110.00494385 74.28295898 C108.46124333 76.9205164 106.92405429 79.56185397 105.38671875 82.203125 C103.09454997 86.14001919 100.79894268 90.07487015 98.5 94.0078125 C96.0573484 98.18712308 93.62055524 102.36978303 91.1875 106.5546875 C90.55980713 107.63347168 89.93211426 108.71225586 89.28540039 109.82373047 C88.09091249 111.87687984 86.89732755 113.93055493 85.70483398 115.98486328 C82.56098333 121.38484522 79.34303127 126.72087426 76 132 C73.1227508 129.4630706 71.53149667 126.61160538 69.70703125 123.2578125 C68.76053711 121.53304687 68.76053711 121.53304687 67.79492188 119.7734375 C67.13367164 118.55753245 66.4728655 117.34138578 65.8125 116.125 C61.41164549 108.03802626 56.88108985 100.10023842 52.01098633 92.28173828 C48.14823383 85.97809386 44.55539112 79.51767121 40.92456055 73.07861328 C36.88983127 65.93148976 32.75308723 58.91828593 28.15454102 52.11376953 C27.58304321 51.06745361 27.58304321 51.06745361 27 50 C27.33 49.34 27.66 48.68 28 48 C28.44434891 48.44656952 28.88869781 48.89313904 29.34651184 49.35324097 C33.9666765 53.99550815 38.59034078 58.63426823 43.21606445 63.27099609 C44.94255363 65.00251782 46.66814473 66.7349355 48.39282227 68.46826172 C50.87020776 70.95775983 53.350792 73.44403108 55.83203125 75.9296875 C56.60400345 76.70682098 57.37597565 77.48395447 58.17134094 78.28463745 C58.89186142 79.00523346 59.6123819 79.72582947 60.35473633 80.46826172 C60.98761063 81.10335663 61.62048492 81.73845154 62.27253723 82.39279175 C64.11275172 84.1911929 64.11275172 84.1911929 67 86 C67 86.66 67 87.32 67 88 C67.99 88 68.98 88 70 88 C70.40883423 87.12819092 70.40883423 87.12819092 70.82592773 86.23876953 C71.98583672 84.02700712 73.27161287 82.16277817 74.78515625 80.1796875 C75.31560547 79.47972656 75.84605469 78.77976562 76.39257812 78.05859375 C76.94365234 77.33800781 77.49472656 76.61742188 78.0625 75.875 C79.15896402 74.43597056 80.25408212 72.9959143 81.34765625 71.5546875 C82.07480835 70.60311768 82.07480835 70.60311768 82.81665039 69.63232422 C84.06846575 67.99881609 84.06846575 67.99881609 85 66 C83.74386902 66.16455185 82.48773804 66.3291037 81.19354248 66.49864197 C72.6691496 67.27500605 65.56692979 67.4830832 58.70264053 61.85495853 C55.2551631 58.64571732 52.03073426 55.26780588 48.828125 51.81640625 C47.40376611 50.35720498 45.97494503 48.90234743 44.54193115 47.4516449 C40.81323475 43.65283431 37.14893809 39.79750822 33.49517822 35.92675781 C29.74519428 31.97788251 25.93388437 28.0891334 22.12890625 24.19335938 C16.60456014 18.51856729 11.10144397 12.82469318 5.64941406 7.08032227 C4.7848484 6.17401817 4.7848484 6.17401817 3.90281677 5.24940491 C0 1.11847015 0 1.11847015 0 0 Z " fill="#FDFDFB" transform="translate(20,51)"/>
<path d="M0 0 C6.18134869 5.10448822 11.79822878 10.68294942 17.4375 16.375 C18.35982422 17.30183594 19.28214844 18.22867188 20.23242188 19.18359375 C22.49058625 21.45345846 24.74636942 23.72563538 27 26 C26.34 26.33 25.68 26.66 25 27 C24.67 27.66 24.34 28.32 24 29 C23.34 28.01 22.68 27.02 22 26 C21.34 26.66 20.68 27.32 20 28 C19.67 28.33 19.34 28.66 19 29 C19.66 29.33 20.32 29.66 21 30 C20.34 31.32 19.68 32.64 19 34 C18.56655273 33.24380371 18.13310547 32.48760742 17.68652344 31.70849609 C16.06302302 28.87843377 14.43765031 26.04946379 12.81103516 23.22119141 C12.11009721 22.00156583 11.4098879 20.78152116 10.71044922 19.56103516 C9.69954997 17.79736927 8.68595841 16.03527403 7.671875 14.2734375 C7.0644043 13.21560059 6.45693359 12.15776367 5.83105469 11.06787109 C4.54558865 8.9141156 3.18430708 6.80468652 1.77050781 4.73291016 C0 2 0 2 0 0 Z " fill="#FAF9F3" transform="translate(47,99)"/>
<path d="M0 0 C-0.33 0.66 -0.66 1.32 -1 2 C-1.99 1.67 -2.98 1.34 -4 1 C-2.7874262 4.72433382 -1.49140021 8.37802806 0 12 C-3 12 -3 12 -5.48046875 9.8828125 C-6.37378906 8.97273438 -7.26710938 8.06265625 -8.1875 7.125 C-9.08855469 6.22007813 -9.98960938 5.31515625 -10.91796875 4.3828125 C-13 2 -13 2 -13 0 C-8.37078475 -1.0161692 -4.65537393 -0.83796731 0 0 Z " fill="#EE9016" transform="translate(135,71)"/>
<path d="M0 0 C5.29012124 4.40843437 10.18808428 9.07559794 15 14 C14.525625 14.433125 14.05125 14.86625 13.5625 15.3125 C11.76313043 17.02309613 11.76313043 17.02309613 11 20 C9.34951167 17.23191444 7.70542682 14.46007909 6.0625 11.6875 C5.35963867 10.50897461 5.35963867 10.50897461 4.64257812 9.30664062 C3.9706543 8.1706543 3.9706543 8.1706543 3.28515625 7.01171875 C2.87144775 6.31522217 2.45773926 5.61872559 2.03149414 4.90112305 C1 3 1 3 0 0 Z " fill="#FBF5EC" transform="translate(47,99)"/>
<path d="M0 0 C0.66 1.98 1.32 3.96 2 6 C1.01 6.33 0.02 6.66 -1 7 C-1 6.34 -1 5.68 -1 5 C-3.64 5.33 -6.28 5.66 -9 6 C-9.33 5.01 -9.66 4.02 -10 3 C-12.01508358 2.26676204 -12.01508358 2.26676204 -14 2 C-12.22978678 1.663389 -10.45880326 1.33082707 -8.6875 1 C-7.70136719 0.814375 -6.71523437 0.62875 -5.69921875 0.4375 C-3 0 -3 0 0 0 Z " fill="#EF921A" transform="translate(160,64)"/>
<path d="M0 0 C0.99 0.33 1.98 0.66 3 1 C1.02 3.31 -0.96 5.62 -3 8 C-4.65 7.67 -6.3 7.34 -8 7 C-7.67 5.35 -7.34 3.7 -7 2 C-4.69 2 -2.38 2 0 2 C0 1.34 0 0.68 0 0 Z " fill="#EC8D0F" transform="translate(99,66)"/>
<path d="M0 0 C2.33364352 2.92903058 4.04960836 5.88568203 5.6875 9.25 C6.12449219 10.14203125 6.56148438 11.0340625 7.01171875 11.953125 C7.33785156 12.62859375 7.66398437 13.3040625 8 14 C7.34 14.66 6.68 15.32 6 16 C1.5467553 11.10143083 0 6.60452917 0 0 Z " fill="#EE8F17" transform="translate(82,160)"/>
<path d="M0 0 C1.93922422 0.45098238 3.87633594 0.91105559 5.8125 1.375 C6.89144531 1.63023438 7.97039062 1.88546875 9.08203125 2.1484375 C12 3 12 3 15 5 C7.36422588 6.71380708 7.36422588 6.71380708 4.06640625 4.98828125 C2.4375 3.625 2.4375 3.625 0 1 C0 0.67 0 0.34 0 0 Z " fill="#F29A30" transform="translate(129,56)"/>
<path d="M0 0 C7.48291572 6.15034169 7.48291572 6.15034169 10 10 C9.34 10 8.68 10 8 10 C7.67 10.99 7.34 11.98 7 13 C5.82786955 11.21190303 4.66244474 9.41940875 3.5 7.625 C2.8503125 6.62726563 2.200625 5.62953125 1.53125 4.6015625 C0 2 0 2 0 0 Z " fill="#FAE4C7" transform="translate(47,99)"/>
<path d="M0 0 C1.65 1.32 3.3 2.64 5 4 C4.34 5.98 3.68 7.96 3 10 C2.34 9.67 1.68 9.34 1 9 C1 8.34 1 7.68 1 7 C0.34 7 -0.32 7 -1 7 C-0.67 4.69 -0.34 2.38 0 0 Z " fill="#FCF5EA" transform="translate(141,91)"/>
<path d="M0 0 C3.63 0 7.26 0 11 0 C9.73577236 2.52845528 8.47154472 2.76422764 6 4 C5.67 4.66 5.34 5.32 5 6 C3.2925002 4.71937515 1.62626404 3.38232443 0 2 C0 1.34 0 0.68 0 0 Z " fill="#FBF5EB" transform="translate(101,51)"/>
<path d="M0 0 C0 0.99 0 1.98 0 3 C-0.66 3 -1.32 3 -2 3 C-2.12375 3.94875 -2.2475 4.8975 -2.375 5.875 C-3 9 -3 9 -5 11 C-5.36637589 4.64948454 -5.36637589 4.64948454 -3.625 1.5625 C-2 0 -2 0 0 0 Z " fill="#FBF6ED" transform="translate(99,128)"/>
<path d="M0 0 C1.65 0 3.3 0 5 0 C5 0.66 5 1.32 5 2 C6.98 2 8.96 2 11 2 C10.67 3.32 10.34 4.64 10 6 C6.7 4.35 3.4 2.7 0 1 C0 0.67 0 0.34 0 0 Z " fill="#ED921D" transform="translate(80,66)"/>
<path d="M0 0 C0.99 0.99 1.98 1.98 3 3 C2.34 4.32 1.68 5.64 1 7 C0.01 6.67 -0.98 6.34 -2 6 C-2 4.35 -2 2.7 -2 1 C-1.34 0.67 -0.68 0.34 0 0 Z " fill="#EF9018" transform="translate(77,152)"/>
<path d="M0 0 C0.99 0.33 1.98 0.66 3 1 C4.1875 3.5625 4.1875 3.5625 5 6 C4.01 6 3.02 6 2 6 C-0.1875 3.5 -0.1875 3.5 -2 1 C-1.34 0.67 -0.68 0.34 0 0 Z " fill="#EE9625" transform="translate(130,77)"/>
<path d="M0 0 C0.93423645 3.01031744 1.04449911 3.86650268 0 7 C-1.32 6.67 -2.64 6.34 -4 6 C-2.68 4.02 -1.36 2.04 0 0 Z " fill="#ED8D13" transform="translate(137,112)"/>
<path d="M0 0 C0.66 1.32 1.32 2.64 2 4 C0.625 5.5 0.625 5.5 -1 7 C-1.66 7 -2.32 7 -3 7 C-1.125 2.25 -1.125 2.25 0 0 Z " fill="#EF8F16" transform="translate(167,59)"/>
<path d="M0 0 C0.99 1.32 1.98 2.64 3 4 C2.01 5.32 1.02 6.64 0 8 C-0.38063221 5.6739143 -0.71269945 3.33944736 -1 1 C-0.67 0.67 -0.34 0.34 0 0 Z " fill="#EE8D14" transform="translate(91,176)"/>
<path d="M0 0 C0.99 0.33 1.98 0.66 3 1 C1.35 2.65 -0.3 4.3 -2 6 C-2 4.68 -2 3.36 -2 2 C-1.34 2 -0.68 2 0 2 C0 1.34 0 0.68 0 0 Z " fill="#EF9622" transform="translate(99,66)"/>
</svg>
